{"asset":{"generator":"3D Builder","version":"2.0"},"scene":0,"scenes":[{"nodes":[0]}],"nodes":[{"mesh":0,"matrix":[0.99999994039535522,0,0,0,0,-1.1920928244535389E-7,-0.99999982118606567,0,0,0.99999982118606567,-1.1920928244535389E-7,0,0,-0.0015567491063848138,1.8557898273652285E-10,1]}],"meshes":[{"primitives":[{"attributes":{"POSITION":0,"COLOR_0":1},"mode":4,"indices":2}]}],"accessors":[{"bufferView":0,"byteOffset":0,"count":2205,"componentType":5126,"type":"VEC3","min":[0.0021911081857979298,0.026609200984239578,0.0015567494556307793],"max":[0.0179895032197237,0.032609201967716217,0.016504537314176559]},{"bufferView":1,"byteOffset":0,"count":2205,"componentType":5121,"type":"VEC4","normalized":true},{"bufferView":2,"byteOffset":0,"count":13230,"componentType":5125,"type":"SCALAR"}],"bufferViews":[{"buffer":0,"byteOffset":0,"byteLength":26460,"byteStride":12,"target":34962},{"buffer":0,"byteOffset":26460,"byteLength":8820,"byteStride":4,"target":34962},{"buffer":0,"byteOffset":35280,"byteLength":52920,"target":34963}],"buffers":[{"byteLength":88200,"uri":"Assem3 - Part2-1.bin"}]}